<?xml version="1.0" encoding="iso-8859-1"?>
<!-- Generator: Adobe Illustrator 19.0.0, SVG Export Plug-In . SVG Version: 6.00 Build 0)  -->
<svg version="1.1" id="Layer_1" xmlns="http://www.w3.org/2000/svg" xmlns:xlink="http://www.w3.org/1999/xlink" x="0px" y="0px"
	 viewBox="0 0 496.2 496.2" style="enable-background:new 0 0 496.2 496.2;" xml:space="preserve">
<path style="fill:#32BEA6;" d="M496.2,248.1C496.2,111.1,385.1,0,248.1,0S0,111.1,0,248.1s111.1,248.1,248.1,248.1
	S496.2,385.1,496.2,248.1z"/>
<path style="fill:#FFFFFF;" d="M67.5,289.1c0-42.9,81.9-67.4,180.6-67.4s180.6,24.6,180.6,67.4c0,42.9-81.9,87.9-180.6,87.9
	S67.5,332,67.5,289.1z"/>
<ellipse style="fill:#D2D6D8;" cx="248.1" cy="285.9" rx="181.1" ry="78.6"/>
<path style="fill:#B5BABC;" d="M376.2,287.2c0,30.4-58.1,47.8-128.1,47.8S120,317.6,120,287.2s58.1-62.3,128.1-62.3
	S376.2,256.8,376.2,287.2z"/>
<path style="fill:#D2D6D8;" d="M367.2,290.3c0,28.6-53.3,51.7-119.1,51.7S129,318.8,129,290.3c0-28.6,53.3-51.7,119.1-51.7
	S367.2,261.7,367.2,290.3z"/>
<path style="fill:#FFFFFF;" d="M67.5,271.4c0-42.9,81.9-67.4,180.6-67.4s180.6,24.6,180.6,67.4c0,42.9-81.9,87.9-180.6,87.9
	S67.5,314.3,67.5,271.4z"/>
<ellipse style="fill:#D2D6D8;" cx="248.1" cy="268.2" rx="181.1" ry="78.6"/>
<path style="fill:#B5BABC;" d="M376.2,269.6c0,30.4-58.1,47.8-128.1,47.8S120,300,120,269.6s58.1-62.3,128.1-62.3
	S376.2,239.2,376.2,269.6z"/>
<path style="fill:#D2D6D8;" d="M367.2,272.6c0,28.6-53.3,51.7-119.1,51.7S129,301.1,129,272.6c0-28.6,53.3-51.7,119.1-51.7
	S367.2,244.1,367.2,272.6z"/>
<path style="fill:#FFFFFF;" d="M67.5,253.8c0-42.9,81.9-67.4,180.6-67.4s180.6,24.6,180.6,67.4c0,42.9-81.9,87.9-180.6,87.9
	S67.5,296.7,67.5,253.8z"/>
<ellipse style="fill:#D2D6D8;" cx="248.1" cy="250.6" rx="181.1" ry="78.6"/>
<path style="fill:#B5BABC;" d="M376.2,251.9c0,30.4-58.1,47.8-128.1,47.8S120,282.3,120,251.9s58.1-62.3,128.1-62.3
	S376.2,221.5,376.2,251.9z"/>
<path style="fill:#D2D6D8;" d="M367.2,255c0,28.6-53.3,51.7-119.1,51.7S129,283.5,129,255c0-28.6,53.3-51.7,119.1-51.7
	S367.2,226.4,367.2,255z"/>
<path style="fill:#FFFFFF;" d="M67.5,236.1c0-42.9,81.9-67.4,180.6-67.4s180.6,24.6,180.6,67.4c0,42.9-81.9,87.9-180.6,87.9
	S67.5,279,67.5,236.1z"/>
<ellipse style="fill:#D2D6D8;" cx="248.1" cy="232.9" rx="181.1" ry="78.6"/>
<path style="fill:#B5BABC;" d="M376.2,234.3c0,30.4-58.1,47.8-128.1,47.8S120,264.7,120,234.3S178.1,172,248.1,172
	S376.2,203.9,376.2,234.3z"/>
<path style="fill:#D2D6D8;" d="M367.2,237.3c0,28.6-53.3,51.7-119.1,51.7S129,265.8,129,237.3c0-28.6,53.3-51.7,119.1-51.7
	S367.2,208.8,367.2,237.3z"/>
<path style="fill:#FFFFFF;" d="M67.5,218.8c0-42.9,81.9-67.4,180.6-67.4s180.6,24.6,180.6,67.4c0,42.9-81.9,87.9-180.6,87.9
	S67.5,261.7,67.5,218.8z"/>
<ellipse style="fill:#D2D6D8;" cx="248.1" cy="215.6" rx="181.1" ry="78.6"/>
<path style="fill:#B5BABC;" d="M376.2,216.9c0,30.4-58.1,47.8-128.1,47.8S120,247.3,120,216.9s58.1-62.3,128.1-62.3
	S376.2,186.5,376.2,216.9z"/>
<path style="fill:#D2D6D8;" d="M367.2,220c0,28.6-53.3,51.7-119.1,51.7S129,248.5,129,220c0-28.6,53.3-51.7,119.1-51.7
	S367.2,191.4,367.2,220z"/>
<path style="fill:#FFFFFF;" d="M67.5,201.1c0-42.9,81.9-67.4,180.6-67.4s180.6,24.6,180.6,67.4c0,42.9-81.9,87.9-180.6,87.9
	S67.5,244,67.5,201.1z"/>
<ellipse style="fill:#D2D6D8;" cx="248.1" cy="197.9" rx="181.1" ry="78.6"/>
<path style="fill:#B5BABC;" d="M376.2,199.3c0,30.4-58.1,47.8-128.1,47.8S120,229.7,120,199.3S178.1,137,248.1,137
	S376.2,168.9,376.2,199.3z"/>
<path style="fill:#D2D6D8;" d="M367.2,202.3c0,28.6-53.3,51.7-119.1,51.7S129,230.8,129,202.3c0-28.6,53.3-51.7,119.1-51.7
	S367.2,173.8,367.2,202.3z"/>
<g>
</g>
<g>
</g>
<g>
</g>
<g>
</g>
<g>
</g>
<g>
</g>
<g>
</g>
<g>
</g>
<g>
</g>
<g>
</g>
<g>
</g>
<g>
</g>
<g>
</g>
<g>
</g>
<g>
</g>
</svg>
